<svg width="268" height="68" viewBox="0 0 268 68" fill="none" xmlns="http://www.w3.org/2000/svg">
<path d="M3.64893 57V19.8896H14.8286V57H3.64893ZM48.0571 57L34.9624 39.0918C33.9272 37.6771 33.0819 36.4004 32.4263 35.2617H32.3228C32.4263 37.0905 32.478 39.1436 32.478 41.4209V57H22.1265V19.8896H32.6851L45.2363 36.918C45.3916 37.1423 45.5814 37.4097 45.8057 37.7202C46.0299 38.0308 46.2542 38.3499 46.4785 38.6777C46.7028 39.0055 46.9098 39.3247 47.0996 39.6353C47.3066 39.9458 47.4619 40.2218 47.5654 40.4634H47.6689C47.5654 39.7043 47.5137 38.3931 47.5137 36.5298V19.8896H57.8652V57H48.0571ZM88.4541 57L86.8237 50.168H75.7476L73.9878 57H61.9023L74.6865 19.8896H88.5576L100.591 57H88.4541ZM81.415 27.9639H81.1562C81.1217 28.3779 81.001 29.0594 80.7939 30.0083C80.5869 30.9572 79.5431 35.0288 77.6626 42.2231H84.7534L82.1655 32.1304C81.8032 30.6466 81.5531 29.2578 81.415 27.9639ZM123.701 28.6367V57H112.47V28.6367H102.092V19.8896H134.208V28.6367H123.701ZM157.939 57L155.17 49.0034C154.635 47.4334 153.936 46.1999 153.074 45.3027C152.228 44.4056 151.305 43.957 150.305 43.957H149.865V57H138.685V19.8896H153.54C158.733 19.8896 162.563 20.7437 165.03 22.4517C167.514 24.1424 168.756 26.6872 168.756 30.0859C168.756 32.6393 168.032 34.7786 166.583 36.5039C165.151 38.2292 163.011 39.48 160.165 40.2563V40.3599C161.735 40.8429 163.037 41.6279 164.072 42.7148C165.125 43.8018 166.065 45.4149 166.893 47.5542L170.542 57H157.939ZM156.878 31.6646C156.878 30.4224 156.498 29.439 155.739 28.7144C154.98 27.9897 153.79 27.6274 152.168 27.6274H149.865V36.1157H151.883C153.384 36.1157 154.592 35.693 155.506 34.8477C156.421 34.0023 156.878 32.9412 156.878 31.6646ZM174.864 57V19.8896H186.043V57H174.864ZM223.671 32.1304C223.671 34.6665 223.024 36.918 221.73 38.8848C220.454 40.8516 218.625 42.3784 216.244 43.4653C213.863 44.535 211.094 45.0698 207.937 45.0698H204.521V57H193.341V19.8896H208.558C213.786 19.8896 217.607 20.8817 220.022 22.8657C222.455 24.8498 223.671 27.938 223.671 32.1304ZM211.845 32.5186C211.845 31.0003 211.405 29.853 210.525 29.0767C209.645 28.3003 208.351 27.9121 206.643 27.9121H204.521V37.0732H207.031C210.24 37.0732 211.845 35.555 211.845 32.5186Z" fill="black"/>
<path d="M244.505 26.5674L262.198 57.3151H226.811L244.505 26.5674Z" fill="#41AE60"/>
<path d="M254.209 35.7925L266.152 57.3159H242.267L254.209 35.7925Z" fill="#41AE60"/>
<path d="M241.607 41.9712V54.7681H238.531V41.9712H241.607ZM254.466 41.9712V54.7681H251.39L246.863 46.8052V54.7681H243.778V41.9712H246.863L251.39 49.9341V41.9712H254.466Z" fill="black"/>
</svg>
