<svg width="267" height="45" viewBox="0 0 267 45" fill="none" xmlns="http://www.w3.org/2000/svg">
<path d="M0.40625 45V0.1875H13.9062V45H0.40625ZM54.0312 45L38.2188 23.375C36.9688 21.6667 35.9479 20.125 35.1562 18.75H35.0312C35.1562 20.9583 35.2188 23.4375 35.2188 26.1875V45H22.7188V0.1875H35.4688L50.625 20.75C50.8125 21.0208 51.0417 21.3438 51.3125 21.7188C51.5833 22.0938 51.8542 22.4792 52.125 22.875C52.3958 23.2708 52.6458 23.6562 52.875 24.0312C53.125 24.4062 53.3125 24.7396 53.4375 25.0312H53.5625C53.4375 24.1146 53.375 22.5312 53.375 20.2812V0.1875H65.875V45H54.0312ZM102.812 45L100.844 36.75H87.4688L85.3438 45H70.75L86.1875 0.1875H102.938L117.469 45H102.812ZM94.3125 9.9375H94C93.9583 10.4375 93.8125 11.2604 93.5625 12.4062C93.3125 13.5521 92.0521 18.4688 89.7812 27.1562H98.3438L95.2188 14.9688C94.7812 13.1771 94.4792 11.5 94.3125 9.9375ZM145.375 10.75V45H131.812V10.75H119.281V0.1875H158.062V10.75H145.375ZM186.719 45L183.375 35.3438C182.729 33.4479 181.885 31.9583 180.844 30.875C179.823 29.7917 178.708 29.25 177.5 29.25H176.969V45H163.469V0.1875H181.406C187.677 0.1875 192.302 1.21875 195.281 3.28125C198.281 5.32292 199.781 8.39583 199.781 12.5C199.781 15.5833 198.906 18.1667 197.156 20.25C195.427 22.3333 192.844 23.8438 189.406 24.7812V24.9062C191.302 25.4896 192.875 26.4375 194.125 27.75C195.396 29.0625 196.531 31.0104 197.531 33.5938L201.938 45H186.719ZM185.438 14.4062C185.438 12.9062 184.979 11.7188 184.062 10.8438C183.146 9.96875 181.708 9.53125 179.75 9.53125H176.969V19.7812H179.406C181.219 19.7812 182.677 19.2708 183.781 18.25C184.885 17.2292 185.438 15.9479 185.438 14.4062ZM207.156 45V0.1875H220.656V45H207.156ZM266.094 14.9688C266.094 18.0312 265.312 20.75 263.75 23.125C262.208 25.5 260 27.3438 257.125 28.6562C254.25 29.9479 250.906 30.5938 247.094 30.5938H242.969V45H229.469V0.1875H247.844C254.156 0.1875 258.771 1.38542 261.688 3.78125C264.625 6.17708 266.094 9.90625 266.094 14.9688ZM251.812 15.4375C251.812 13.6042 251.281 12.2188 250.219 11.2812C249.156 10.3438 247.594 9.875 245.531 9.875H242.969V20.9375H246C249.875 20.9375 251.812 19.1042 251.812 15.4375Z" fill="black"/>
</svg>
